<svg version="1.0" xmlns="http://www.w3.org/2000/svg" width="500.000000ptpx" height="500.000000ptpx" viewBox="0 0 500.000000 500.000000" preserveAspectRatio="xMidYMid meet" transform="rotate(0) scale(1, 1)">

<g transform="translate(0.000000,500.000000) scale(0.100000,-0.100000)" fill="#ffffff" stroke="none">
<path d="M1650 3954 c-94 -25 -187 -103 -227 -190 -14 -32 -29 -90 -35 -133&#10;-5 -43 -8 -337 -6 -662 4 -640 4 -635 66 -727 37 -56 121 -118 185 -137 75&#10;-22 1638 -23 1713 0 62 18 150 83 186 136 60 90 59 73 56 800 l-3 664 -28 57&#10;c-46 94 -134 168 -228 194 -81 21 -1598 20 -1679 -2z m1680 -158 c26 -13 58&#10;-41 75 -65 l30 -43 3 -636 c2 -441 0 -649 -8 -675 -15 -53 -63 -103 -118 -124&#10;-44 -17 -98 -18 -832 -18 -785 0 -785 0 -825 22 -50 27 -80 58 -100 105 -13&#10;32 -15 121 -15 659 0 462 3 632 12 663 15 49 71 108 118 123 24 8 280 11 825&#10;12 l790 0 45 -23z"/>
<path d="M2932 3470 c-65 -68 -205 -216 -312 -329 -107 -113 -216 -229 -241&#10;-258 l-45 -51 -174 174 c-168 168 -175 174 -214 174 -33 0 -50 -8 -88 -41 -49&#10;-42 -68 -83 -60 -128 3 -15 99 -122 239 -268 245 -254 269 -272 321 -244 20&#10;11 148 141 312 317 191 204 351 374 446 474 65 69 103 116 107 135 13 72 -52&#10;151 -133 162 l-42 6 -116 -123z"/>
<path d="M1490 1845 c-16 -17 -24 -37 -24 -60 0 -23 8 -43 24 -60 22 -23 30&#10;-25 121 -25 96 0 97 0 123 31 14 17 26 41 26 54 0 13 -12 37 -26 54 -26 31&#10;-27 31 -123 31 -91 0 -99 -2 -121 -25z"/>
<path d="M1900 1845 c-16 -17 -24 -37 -24 -60 0 -23 8 -43 24 -60 l23 -25 774&#10;0 774 0 24 25 c17 16 25 35 25 60 0 25 -8 44 -25 60 l-24 25 -774 0 -774 0&#10;-23 -25z"/>
<path d="M1525 1531 c-60 -26 -81 -110 -37 -153 20 -21 32 -23 122 -23 113 0&#10;136 12 146 77 5 30 1 41 -24 69 -29 32 -33 34 -109 36 -43 2 -87 -1 -98 -6z"/>
<path d="M1935 1531 c-60 -25 -81 -110 -37 -153 l23 -23 757 -3 c416 -1 767 0&#10;779 3 63 15 84 99 39 152 l-24 28 -759 2 c-417 1 -767 -2 -778 -6z"/>
<path d="M1503 1171 c-51 -32 -54 -100 -5 -145 18 -15 36 -18 114 -17 90 1 94&#10;2 121 31 42 46 32 107 -22 135 -45 23 -167 20 -208 -4z"/>
<path d="M1919 1175 c-38 -21 -52 -67 -35 -110 8 -18 24 -38 35 -45 18 -9 640&#10;-14 1479 -10 64 0 76 3 97 25 35 34 34 93 -1 126 l-26 24 -761 2 c-649 2 -766&#10;0 -788 -12z"/>
</g>
</svg>